<mxfile host="app.diagrams.net" agent="Mozilla/5.0 (Windows NT 10.0; Win64; x64) AppleWebKit/537.36 (KHTML, like Gecko) Chrome/132.0.0.0 YaBrowser/25.2.0.0 Safari/537.36" version="26.0.16">
  <diagram name="Страница — 1" id="w_WDC3LxiImc5ZUZDo3c">
    <mxGraphModel dx="777" dy="472" grid="1" gridSize="10" guides="1" tooltips="1" connect="1" arrows="1" fold="1" page="1" pageScale="1" pageWidth="827" pageHeight="1169" math="0" shadow="0">
      <root>
        <mxCell id="0" />
        <mxCell id="1" parent="0" />
        <object label="" id="g5uYnEfX5IA6xZRLX_8b-1">
          <mxCell style="shape=process;whiteSpace=wrap;html=1;backgroundOutline=1;" vertex="1" parent="1">
            <mxGeometry x="280" y="40" width="220" height="60" as="geometry" />
          </mxCell>
        </object>
        <mxCell id="g5uYnEfX5IA6xZRLX_8b-4" value="" style="endArrow=classic;html=1;rounded=0;entryX=0.5;entryY=0;entryDx=0;entryDy=0;" edge="1" parent="1" target="g5uYnEfX5IA6xZRLX_8b-23">
          <mxGeometry width="50" height="50" relative="1" as="geometry">
            <mxPoint x="390" y="100" as="sourcePoint" />
            <mxPoint x="390" y="320" as="targetPoint" />
          </mxGeometry>
        </mxCell>
        <mxCell id="g5uYnEfX5IA6xZRLX_8b-5" value="" style="endArrow=none;html=1;rounded=0;entryX=0.865;entryY=0.917;entryDx=0;entryDy=0;entryPerimeter=0;" edge="1" parent="1" target="g5uYnEfX5IA6xZRLX_8b-27">
          <mxGeometry width="50" height="50" relative="1" as="geometry">
            <mxPoint x="160" y="160" as="sourcePoint" />
            <mxPoint x="640" y="160" as="targetPoint" />
          </mxGeometry>
        </mxCell>
        <mxCell id="g5uYnEfX5IA6xZRLX_8b-6" value="&lt;h4&gt;&lt;span style=&quot;font-family: Geometria, proxima-nova, arial, sans-serif; background-color: rgb(244, 243, 244);&quot;&gt;&lt;font style=&quot;font-size: 12px;&quot;&gt;Схема обучения по no-code разработке в Университете Зерокодер.&lt;/font&gt;&lt;/span&gt;&lt;/h4&gt;" style="text;html=1;align=center;verticalAlign=middle;whiteSpace=wrap;rounded=0;fontSize=13;" vertex="1" parent="1">
          <mxGeometry x="305" y="49" width="170" height="42" as="geometry" />
        </mxCell>
        <mxCell id="g5uYnEfX5IA6xZRLX_8b-7" value="" style="rounded=1;whiteSpace=wrap;html=1;" vertex="1" parent="1">
          <mxGeometry x="100" y="200" width="120" height="60" as="geometry" />
        </mxCell>
        <mxCell id="g5uYnEfX5IA6xZRLX_8b-8" value="" style="endArrow=classic;html=1;rounded=0;entryX=0.5;entryY=0;entryDx=0;entryDy=0;" edge="1" parent="1" target="g5uYnEfX5IA6xZRLX_8b-7">
          <mxGeometry width="50" height="50" relative="1" as="geometry">
            <mxPoint x="160" y="160" as="sourcePoint" />
            <mxPoint x="210" y="110" as="targetPoint" />
            <Array as="points">
              <mxPoint x="160" y="180" />
            </Array>
          </mxGeometry>
        </mxCell>
        <mxCell id="g5uYnEfX5IA6xZRLX_8b-29" style="edgeStyle=orthogonalEdgeStyle;rounded=0;orthogonalLoop=1;jettySize=auto;html=1;exitX=1;exitY=0.5;exitDx=0;exitDy=0;entryX=0;entryY=0.5;entryDx=0;entryDy=0;" edge="1" parent="1" source="g5uYnEfX5IA6xZRLX_8b-9" target="g5uYnEfX5IA6xZRLX_8b-28">
          <mxGeometry relative="1" as="geometry" />
        </mxCell>
        <mxCell id="g5uYnEfX5IA6xZRLX_8b-9" value="" style="rounded=1;whiteSpace=wrap;html=1;" vertex="1" parent="1">
          <mxGeometry x="437" y="200" width="120" height="60" as="geometry" />
        </mxCell>
        <mxCell id="g5uYnEfX5IA6xZRLX_8b-10" value="" style="endArrow=classic;html=1;rounded=0;entryX=0.5;entryY=0;entryDx=0;entryDy=0;" edge="1" parent="1">
          <mxGeometry width="50" height="50" relative="1" as="geometry">
            <mxPoint x="500" y="160" as="sourcePoint" />
            <mxPoint x="500" y="200" as="targetPoint" />
            <Array as="points">
              <mxPoint x="500" y="180" />
            </Array>
          </mxGeometry>
        </mxCell>
        <mxCell id="g5uYnEfX5IA6xZRLX_8b-12" value="&lt;h6&gt;Программист на Python с помощью GPT&lt;/h6&gt;" style="text;html=1;align=center;verticalAlign=middle;whiteSpace=wrap;rounded=0;" vertex="1" parent="1">
          <mxGeometry x="110" y="210" width="100" height="40" as="geometry" />
        </mxCell>
        <mxCell id="g5uYnEfX5IA6xZRLX_8b-13" value="&lt;h5&gt;Веб-дизайнер&lt;/h5&gt;" style="text;html=1;align=center;verticalAlign=middle;whiteSpace=wrap;rounded=0;" vertex="1" parent="1">
          <mxGeometry x="447" y="210" width="100" height="40" as="geometry" />
        </mxCell>
        <mxCell id="g5uYnEfX5IA6xZRLX_8b-14" value="&lt;h4&gt;Инструментальные программы&lt;/h4&gt;" style="text;html=1;align=center;verticalAlign=middle;whiteSpace=wrap;rounded=0;" vertex="1" parent="1">
          <mxGeometry x="230" y="296" width="275" height="20" as="geometry" />
        </mxCell>
        <mxCell id="g5uYnEfX5IA6xZRLX_8b-15" value="" style="endArrow=none;html=1;rounded=0;" edge="1" parent="1">
          <mxGeometry width="50" height="50" relative="1" as="geometry">
            <mxPoint x="160" y="320" as="sourcePoint" />
            <mxPoint x="653" y="320" as="targetPoint" />
          </mxGeometry>
        </mxCell>
        <mxCell id="g5uYnEfX5IA6xZRLX_8b-16" value="" style="endArrow=classic;html=1;rounded=0;entryX=0.5;entryY=0;entryDx=0;entryDy=0;" edge="1" target="g5uYnEfX5IA6xZRLX_8b-17" parent="1">
          <mxGeometry width="50" height="50" relative="1" as="geometry">
            <mxPoint x="160" y="320" as="sourcePoint" />
            <mxPoint x="210" y="270" as="targetPoint" />
          </mxGeometry>
        </mxCell>
        <mxCell id="g5uYnEfX5IA6xZRLX_8b-17" value="" style="rounded=1;whiteSpace=wrap;html=1;" vertex="1" parent="1">
          <mxGeometry x="100" y="360" width="120" height="60" as="geometry" />
        </mxCell>
        <mxCell id="g5uYnEfX5IA6xZRLX_8b-18" value="Интенсивы" style="text;html=1;align=center;verticalAlign=middle;whiteSpace=wrap;rounded=0;" vertex="1" parent="1">
          <mxGeometry x="110" y="369" width="100" height="40" as="geometry" />
        </mxCell>
        <mxCell id="g5uYnEfX5IA6xZRLX_8b-19" value="" style="endArrow=classic;html=1;rounded=0;entryX=0.5;entryY=0;entryDx=0;entryDy=0;" edge="1" target="g5uYnEfX5IA6xZRLX_8b-20" parent="1">
          <mxGeometry width="50" height="50" relative="1" as="geometry">
            <mxPoint x="652" y="320" as="sourcePoint" />
            <mxPoint x="702" y="270" as="targetPoint" />
          </mxGeometry>
        </mxCell>
        <mxCell id="g5uYnEfX5IA6xZRLX_8b-20" value="" style="rounded=1;whiteSpace=wrap;html=1;" vertex="1" parent="1">
          <mxGeometry x="592" y="360" width="120" height="60" as="geometry" />
        </mxCell>
        <mxCell id="g5uYnEfX5IA6xZRLX_8b-21" value="&lt;h4&gt;UX/UI&lt;/h4&gt;" style="text;html=1;align=center;verticalAlign=middle;whiteSpace=wrap;rounded=0;" vertex="1" parent="1">
          <mxGeometry x="602" y="369" width="100" height="40" as="geometry" />
        </mxCell>
        <mxCell id="g5uYnEfX5IA6xZRLX_8b-23" value="" style="rounded=1;whiteSpace=wrap;html=1;" vertex="1" parent="1">
          <mxGeometry x="330" y="361" width="120" height="60" as="geometry" />
        </mxCell>
        <mxCell id="g5uYnEfX5IA6xZRLX_8b-24" value="&lt;h5&gt;Тильда 2.0&lt;/h5&gt;" style="text;html=1;align=center;verticalAlign=middle;whiteSpace=wrap;rounded=0;" vertex="1" parent="1">
          <mxGeometry x="340" y="370" width="100" height="40" as="geometry" />
        </mxCell>
        <mxCell id="g5uYnEfX5IA6xZRLX_8b-27" value="&lt;h4&gt;Курсы - профессии&lt;/h4&gt;" style="text;html=1;align=center;verticalAlign=middle;whiteSpace=wrap;rounded=0;" vertex="1" parent="1">
          <mxGeometry x="262.5" y="142" width="275" height="20" as="geometry" />
        </mxCell>
        <mxCell id="g5uYnEfX5IA6xZRLX_8b-28" value="" style="rounded=1;whiteSpace=wrap;html=1;" vertex="1" parent="1">
          <mxGeometry x="592" y="200" width="120" height="60" as="geometry" />
        </mxCell>
        <mxCell id="g5uYnEfX5IA6xZRLX_8b-30" value="&lt;h5&gt;Разработчик мобильных приложений&lt;/h5&gt;" style="text;html=1;align=center;verticalAlign=middle;whiteSpace=wrap;rounded=0;" vertex="1" parent="1">
          <mxGeometry x="602" y="210" width="100" height="40" as="geometry" />
        </mxCell>
        <mxCell id="g5uYnEfX5IA6xZRLX_8b-31" value="&lt;h6&gt;Программист на Python с помощью GPT&lt;/h6&gt;" style="text;html=1;align=center;verticalAlign=middle;whiteSpace=wrap;rounded=0;" vertex="1" parent="1">
          <mxGeometry x="260" y="210" width="100" height="40" as="geometry" />
        </mxCell>
        <mxCell id="g5uYnEfX5IA6xZRLX_8b-32" value="" style="rounded=1;whiteSpace=wrap;html=1;" vertex="1" parent="1">
          <mxGeometry x="250" y="200" width="120" height="60" as="geometry" />
        </mxCell>
        <mxCell id="g5uYnEfX5IA6xZRLX_8b-33" value="&lt;h5&gt;Нейросети для маркетинга и продаж&lt;/h5&gt;" style="text;html=1;align=center;verticalAlign=middle;whiteSpace=wrap;rounded=0;" vertex="1" parent="1">
          <mxGeometry x="260" y="210" width="100" height="40" as="geometry" />
        </mxCell>
        <mxCell id="g5uYnEfX5IA6xZRLX_8b-34" value="" style="endArrow=classic;html=1;rounded=0;entryX=0.5;entryY=0;entryDx=0;entryDy=0;" edge="1" parent="1" target="g5uYnEfX5IA6xZRLX_8b-7">
          <mxGeometry width="50" height="50" relative="1" as="geometry">
            <mxPoint x="160" y="160" as="sourcePoint" />
            <mxPoint x="160" y="200" as="targetPoint" />
            <Array as="points" />
          </mxGeometry>
        </mxCell>
        <mxCell id="g5uYnEfX5IA6xZRLX_8b-35" value="" style="endArrow=classic;html=1;rounded=0;entryX=0.5;entryY=0;entryDx=0;entryDy=0;" edge="1" parent="1">
          <mxGeometry width="50" height="50" relative="1" as="geometry">
            <mxPoint x="311" y="160" as="sourcePoint" />
            <mxPoint x="311" y="200" as="targetPoint" />
            <Array as="points" />
          </mxGeometry>
        </mxCell>
      </root>
    </mxGraphModel>
  </diagram>
</mxfile>
